<svg width="25" height="24" viewBox="0 0 25 24" fill="none" xmlns="http://www.w3.org/2000/svg">
<path fill-rule="evenodd" clip-rule="evenodd" d="M7.65988 5C6.94216 5 6.27948 5.38457 5.92339 6.00772L3.06625 11.0077C2.7149 11.6226 2.7149 12.3774 3.06625 12.9923L5.92339 17.9923C6.27948 18.6154 6.94216 19 7.65988 19H20.4992C21.6038 19 22.4992 18.1046 22.4992 17V7C22.4992 5.89543 21.6038 5 20.4992 5H7.65988ZM6.49921 13C7.05149 13 7.49921 12.5523 7.49921 12C7.49921 11.4477 7.05149 11 6.49921 11C5.94692 11 5.49921 11.4477 5.49921 12C5.49921 12.5523 5.94692 13 6.49921 13Z" fill="#F72E52"/>
</svg>
