<svg width="24" height="24" viewBox="0 0 24 24" fill="none" xmlns="http://www.w3.org/2000/svg">
<path d="M12.0227 14.745L19.8977 6.87003C20.081 6.6867 20.3102 6.59503 20.5852 6.59503C20.8602 6.59503 21.0977 6.6867 21.2977 6.87003C21.4977 7.07003 21.5977 7.30753 21.5977 7.58253C21.5977 7.85753 21.4977 8.09503 21.2977 8.29503L13.0727 16.52C12.9227 16.67 12.756 16.7784 12.5727 16.845C12.3893 16.9117 12.206 16.945 12.0227 16.945C11.8393 16.945 11.656 16.9117 11.4727 16.845C11.2893 16.7784 11.1227 16.67 10.9727 16.52L2.72266 8.27003C2.52266 8.07003 2.42682 7.8367 2.43516 7.57003C2.44349 7.30336 2.54766 7.07003 2.74766 6.87003C2.94766 6.6867 3.18099 6.59086 3.44766 6.58253C3.71432 6.5742 3.94766 6.67003 4.14766 6.87003L12.0227 14.745Z" fill="#6C6A69"/>
</svg>
