<svg width="133" height="24" viewBox="0 0 133 24" fill="none" xmlns="http://www.w3.org/2000/svg">
<g clip-path="url(#clip0_4529_31555)">
<path d="M98.6853 3.78027H108.703C108.487 6.89665 107.901 8.71131 106.616 10.3665C105.547 11.8406 102.966 13.0734 100.095 13.5173L99.0905 11.7501C101.138 11.5087 102.879 10.9613 104.009 10.2113C105.534 9.10355 106.297 7.73286 106.616 5.54751H98.681V3.78027H98.6853Z" fill="#545454"/>
<path d="M111.59 3.04294H113.496V9.75414H111.59V3.04294ZM119.513 2.99121V8.07742C119.461 10.974 118.991 11.9438 117.112 12.961C116.121 13.4567 114.914 13.711 113.108 13.8016L112.293 11.9697C114.099 11.8921 115 11.7541 115.853 11.4352C117.315 10.8231 117.608 10.2024 117.634 7.69811V2.99121H119.517H119.513Z" fill="#545454"/>
<path d="M122.121 4.15918H132.789C132.418 5.82297 130.616 8.53418 128.44 10.6937C129.039 11.4178 129.228 11.6592 129.888 12.6118L128.259 13.8057C127.228 12.0902 125.384 9.99108 123.582 8.49108L125.095 7.36177C126.086 8.17642 126.517 8.56866 127.254 9.37039C128.297 8.36608 129.517 6.80142 129.987 5.8359H122.116V4.15918H122.121Z" fill="#545454"/>
<path d="M61.2241 15.6981C60.9871 15.7541 60.1207 16.0515 59.8664 16.1248C59.8405 16.9265 59.7112 20.4998 59.7112 20.4998C59.6379 22.1636 58.9181 23.267 57.0043 23.9998L56.3147 23.8317C57.25 23.2757 57.6595 22.7886 57.7759 22.3834C57.9655 21.8576 58.0604 20.642 58.0604 18.3963C58.0604 18.3963 58.0388 16.7067 57.9957 16.1334C57.7069 16.086 56.5345 15.7972 56.1681 15.7196L56.1509 15.1895C56.9009 15.211 58.5388 15.2369 59.181 15.2369C59.8233 15.2369 60.6121 15.2024 61.2673 15.1895L61.2198 15.6981H61.2241Z" fill="#FF0033"/>
<path d="M91.7759 16.7846C91.6379 16.8191 91.2371 16.9096 90.8836 16.9829C90.8621 17.5605 90.9267 21.8062 90.9353 22.8234C90.9353 22.97 90.7715 23.0432 90.6422 22.9096C89.7241 22.0088 86.7931 18.6941 85.819 17.4915C85.819 18.2415 85.8578 21.2674 85.8664 21.8277C86.2328 21.9312 87.0819 22.1338 87.2414 22.1639L87.2759 22.7674C86.5345 22.7588 84.0905 22.7631 84.0431 22.7674L84.0517 22.1812C84.3664 22.0475 84.6681 21.9398 84.9526 21.8277C84.9914 21.4743 84.9871 17.2889 84.9871 17.0217C84.7457 17.0001 84.2629 16.9872 83.931 16.97V16.2415C84.3319 16.2329 85.5733 16.2415 86.2543 16.2415C87.0991 17.2027 89.125 19.4613 90.1509 20.6079C90.1638 19.6381 90.0948 17.3665 90.0819 16.9743C89.9095 16.9441 89.5086 16.9053 89.0733 16.8148L89.0172 16.2415C89.1897 16.2588 90.2974 16.276 90.5 16.276C90.7026 16.276 91.625 16.22 91.8147 16.207L91.7802 16.7846H91.7759Z" fill="#FF0033"/>
<path d="M74.4095 18.4823C74.4095 19.2883 73.6595 19.6202 72.8405 19.7538V20.3228C74.5647 20.1504 75.6638 19.465 75.6638 18.4521V18.4047C75.6638 17.2323 74.8836 16.2107 73.0474 16.1763C73.0474 16.1763 72.3836 16.1504 72.0043 16.1504H69.5259L69.6336 16.7969C69.9785 16.8357 70.4354 16.8702 70.7242 16.8918C70.75 17.6978 70.8319 21.0211 70.7759 21.965C70.5776 22.0081 69.9267 22.1375 69.6811 22.2021L69.6207 22.7668C69.8664 22.7538 73.4181 22.7538 73.681 22.7668L73.6509 22.2797C73.3966 22.2107 72.4828 22.0469 72.25 21.9909C72.2198 21.7711 72.1552 17.0642 72.1681 16.8616C72.5388 16.8616 73.2112 16.8788 73.5043 16.9564C74.2069 17.1418 74.4052 17.9004 74.4052 18.3788" fill="#FF0033"/>
<path d="M26.4957 3.40483C26.0259 3.44794 24.0862 3.88759 23.431 4.02552C22.7328 4.21087 16.0172 9.46518 15.5991 10.6764C15.5043 11.0988 15.5991 15.6117 15.5991 15.6117L19.3922 15.866L19.2586 17.116C18.7112 17.0772 15.1897 17.0859 12.9828 17.0859C11.8621 17.0859 8.44828 17.2109 7.29741 17.1764L7.43965 15.9824C8.15948 16.0428 9.25862 15.9307 9.93103 15.7497C10.6034 15.5729 11.0862 15.3057 11.0862 14.629V10.7109C10.8534 10.0126 5.27155 2.98242 3.82328 1.86173C3.40517 1.71949 0.650862 1.42208 0 1.27984L0.133621 0.107422H12.875L12.694 1.18932C12.1336 1.33156 9.43965 1.38328 8.73707 1.56863C10.556 4.27552 13.4353 7.75828 14.3664 9.11173C14.8793 8.36604 19.7629 4.94794 19.9009 3.87466C19.2026 3.73673 16.8836 3.40052 16.5129 3.40052L16.2931 2.20225H27.2931L26.5 3.40052L26.4957 3.40483Z" fill="#FF0033"/>
<path d="M53.6336 13.6159C51.625 13.4952 48.1034 13.5469 46.0258 13.6159L46.1508 12.5556C46.4612 12.5254 48.1034 12.2625 48.5215 12.2064V8.5728C47.5215 8.5728 41.9396 8.69349 41.0603 8.91763V12.1849C41.0603 12.1849 43.4655 12.4607 44.0258 12.5211L43.8965 13.6245C41.7069 13.4995 37.3491 13.4995 35.2801 13.6159L35.4181 12.4306C36.0689 12.4133 37.806 12.215 38.2112 12.1504C38.2758 11.34 38.306 10.0599 38.306 8.71936V7.06418C38.306 6.50384 38.2758 4.88315 38.2457 4.31849C37.7672 4.31849 35.7715 4.12884 35.2112 4.09867L35.3491 3.05125C37.1508 3.15039 42.7026 3.15039 44.2327 3.05125L44.0776 4.02539C43.6422 4.04694 41.6724 4.34005 41.0689 4.34005V7.2366H48.5301V3.01246C47.9784 2.95643 46.6336 2.6547 46.0431 2.62453L46.1595 1.65039C47.4051 1.74091 52.3405 1.72798 53.6638 1.65039L53.5732 2.67194C53.1681 2.70643 51.7198 2.95211 51.2414 2.98229V12.2323C51.2414 12.2323 53.3491 12.4909 53.7888 12.5513L53.6508 13.6116L53.6336 13.6159Z" fill="#FF0033"/>
<path d="M91.2715 14.7112L89.8922 14.7672L90.1551 12.4397L91.5258 12.5043L92.8103 12.4569L92.5388 14.7371L91.2672 14.7112H91.2715ZM92.7801 10.5388H90.7758V0H95.3276L94.9181 1.5819L92.7801 10.5345V10.5388Z" fill="#FF0033"/>
<path d="M62.3578 12.4956C62.1897 12.4999 62.0259 12.5086 61.8621 12.5172C61.6983 12.5086 61.5345 12.4999 61.3664 12.4956C59.6811 12.4482 56.4224 11.487 56.4224 8.58183V8.28873C56.4224 5.37924 59.6811 4.41804 61.3664 4.37062C61.5345 4.36631 61.6983 4.35769 61.8621 4.34907C62.0259 4.35769 62.1897 4.36631 62.3578 4.37062C64.0474 4.41804 67.3017 5.37924 67.3017 8.28873V8.58183C67.3017 11.487 64.0431 12.4525 62.3578 12.4956ZM70.1724 8.36631C70.1724 5.02579 66.9699 2.99993 62.0992 2.89648C62.0992 2.89648 61.9267 2.89648 61.8621 2.89648C61.7974 2.89648 61.625 2.89648 61.625 2.89648C56.4569 3.00424 53.5948 5.04304 53.5948 8.38355C53.5948 8.4008 53.5948 8.41804 53.5948 8.43528C53.5948 8.45252 53.5948 8.46545 53.5948 8.487C53.625 11.6292 56.75 13.8706 61.625 13.9741C61.625 13.9741 61.7974 13.9741 61.8621 13.9741C61.9224 13.9741 62.0992 13.9741 62.0992 13.9741C66.9699 13.8706 70.1164 11.7672 70.1724 8.50424C70.1724 8.487 70.1724 8.39217 70.1724 8.37493" fill="#FF0033"/>
<path d="M80.8017 11.4222C80.5517 11.4395 80.306 11.4481 80.0603 11.4481C79.8147 11.4481 79.569 11.4395 79.319 11.4222C77.4784 11.2972 74.1336 10.1636 74.0647 7.04293C74.1336 3.91793 77.4784 2.83604 79.319 2.71104C79.569 2.6938 79.8147 2.68518 80.0603 2.68518C80.306 2.68518 80.5517 2.6938 80.8017 2.71104C82.6465 2.83604 85.9871 3.91793 86.056 7.04293C85.9871 10.1679 82.6422 11.2972 80.8017 11.4222ZM89.194 7.04293V6.98259C89.069 3.4869 85.7026 1.22828 80.2845 1.11621C80.2845 1.11621 80.1379 1.11621 80.0603 1.11621C79.9828 1.11621 79.8405 1.11621 79.8405 1.11621C74.4181 1.23259 71.0388 3.33604 70.931 6.98259V7.09897C71.0388 10.7498 74.4181 12.905 79.8405 13.0171C79.8405 13.0171 79.9871 13.0171 80.0603 13.0171C80.1379 13.0171 80.2845 13.0171 80.2845 13.0171C85.7026 12.9007 89.0862 10.7498 89.194 7.09897C89.194 7.09897 89.194 7.06449 89.194 7.04293Z" fill="#FF0033"/>
<path d="M26.4397 10.7027C26.6164 10.2328 28.2026 6.86214 28.2026 6.86214L29.694 10.7027H26.4397ZM34.6035 15.1164C34.0388 14.1897 31.9052 8.93541 30.9526 6.56041L32.7026 6.28886L32.9138 5.39231H30.2544V5.40093C29.2457 5.41386 25.1251 5.37938 24.6725 5.35352L24.5949 6.28886L26.7113 6.79317C26.7113 6.79317 23.6164 12.9139 22.9957 13.7932C22.444 13.9139 21.1035 14.2371 20.5992 14.2932L20.4526 15.4225C20.8707 15.3621 26.2716 15.3923 26.7716 15.4225L26.888 14.4009L25.0044 13.957C25.0044 13.957 25.8578 12.1768 25.9785 11.9699C26.5949 11.8535 30.1078 11.7975 30.1078 11.7975L31.3578 15.194C31.3578 15.194 29.8707 15.4225 29.2802 15.4527L29.1509 16.569C29.5906 16.569 36.7242 16.5389 36.9311 16.569L37.0475 15.569C36.5216 15.5389 35.1035 15.2027 34.6035 15.1164Z" fill="#FF0033"/>
<path d="M82.4784 22.0045C81.7715 20.5347 80.5905 17.6424 80.2758 16.8623L81.1207 16.7502L81.1767 16.1855L77.6896 16.3062L77.6767 16.7804L78.5819 16.9355C77.987 18.2416 76.4482 21.5735 76.181 21.9657C75.9482 22.0476 75.6595 22.1381 75.3793 22.2373L75.3232 22.7674C76.125 22.7243 77.8491 22.7545 78.1207 22.7674L78.1336 22.2933L77.2672 22.0476C77.2672 22.0476 77.806 20.7416 78 20.3493C78.6724 20.3407 80.4482 20.358 80.4482 20.358L81.1077 22.0864C81.1077 22.0864 80.4913 22.2157 80.0344 22.3062L79.9569 22.7674C80.1982 22.7674 83.3491 22.7545 83.4612 22.7674L83.5215 22.22C83.2327 22.1597 82.4741 22.0045 82.4741 22.0045H82.4784ZM78.2327 19.7674C78.375 19.4226 79.2844 17.289 79.2844 17.289L80.25 19.7761L78.237 19.7674H78.2327Z" fill="#FF0033"/>
<path d="M67.8793 22.0045C67.4396 21.0864 66.237 18.2114 65.6896 16.8623L66.6034 16.6985L66.6293 16.1855L63.0905 16.3062V16.7761L63.9914 16.9312C63.3922 18.233 61.8491 21.5735 61.5819 21.9657C61.2888 22.0735 61.0302 22.1511 60.7802 22.2373L60.7241 22.7674C61.5129 22.7416 63.25 22.7545 63.5215 22.7674L63.5345 22.2933L62.6681 22.0476C62.6681 22.0476 63.2069 20.7416 63.4008 20.3493C64.0733 20.3407 65.8491 20.358 65.8491 20.358L66.5086 22.0864C66.5086 22.0864 65.8922 22.2157 65.4353 22.3062L65.3577 22.7674C65.5948 22.7674 68.75 22.7502 68.862 22.7674L68.9224 22.22C68.6336 22.1597 67.8793 22.0045 67.8793 22.0045ZM63.6336 19.7674C63.7715 19.4226 64.6853 17.289 64.6853 17.289L65.6508 19.7761L63.6379 19.7674H63.6336Z" fill="#FF0033"/>
</g>
<defs>
<clipPath id="clip0_4529_31555">
<rect width="132.784" height="24" fill="white"/>
</clipPath>
</defs>
</svg>
