<svg width="24" height="24" viewBox="0 0 24 24" fill="none" xmlns="http://www.w3.org/2000/svg">
<path fill-rule="evenodd" clip-rule="evenodd" d="M7 7C7 6.44772 6.55228 6 6 6C5.44772 6 5 6.44772 5 7V14.5858L3.70711 13.2929C3.31658 12.9024 2.68342 12.9024 2.29289 13.2929C1.90237 13.6834 1.90237 14.3166 2.29289 14.7071L5.29289 17.7071C5.68342 18.0976 6.31658 18.0976 6.70711 17.7071L9.70711 14.7071C10.0976 14.3166 10.0976 13.6834 9.70711 13.2929C9.31658 12.9024 8.68342 12.9024 8.29289 13.2929L7 14.5858V7ZM11 6C10.4477 6 10 6.44772 10 7C10 7.55228 10.4477 8 11 8H21C21.5523 8 22 7.55228 22 7C22 6.44772 21.5523 6 21 6H11ZM11 11C10.4477 11 10 11.4477 10 12C10 12.5523 10.4477 13 11 13H21C21.5523 13 22 12.5523 22 12C22 11.4477 21.5523 11 21 11H11ZM10 17C10 16.4477 10.4477 16 11 16H21C21.5523 16 22 16.4477 22 17C22 17.5523 21.5523 18 21 18H11C10.4477 18 10 17.5523 10 17Z" fill="#6C6A69"/>
</svg>
