<svg width="74" height="16" viewBox="0 0 74 16" fill="none" xmlns="http://www.w3.org/2000/svg">
<g clip-path="url(#clip0_19317_34180)">
<path d="M25.0084 2.99828C24.5806 3.04145 22.8146 3.43782 22.2181 3.5634C21.5824 3.73216 15.4681 8.51607 15.0874 9.61884C15.001 10.0034 15.0874 14.1123 15.0874 14.1123L18.5409 14.3439L18.4192 15.482C17.9208 15.4467 14.7185 15.4545 12.7052 15.4545C11.6849 15.4545 8.57671 15.5683 7.52496 15.5369L7.65447 14.4498C8.30985 14.5048 9.31059 14.4027 9.9228 14.2379C10.535 14.0731 10.9746 13.8298 10.9746 13.2176V9.65023C10.7626 9.01447 5.68047 2.61369 4.36185 1.59333C3.98118 1.46382 1.47345 1.19303 0.880859 1.06353L1.00644 0H12.6071L12.4384 0.985038C11.9282 1.11454 9.47542 1.16164 8.83573 1.33039C10.4918 3.79495 13.1134 6.96591 13.9611 8.19818C14.4281 7.51925 18.8745 4.40716 19.0001 3.42997C18.3643 3.30439 16.2529 2.99828 15.9154 2.99828L15.7153 1.90728H25.7305L25.0084 2.99828Z" fill="#FF0033"/>
<path d="M23.3133 15.6036L21.9868 15.2583L22.9169 13.1195L24.2041 13.5825L25.4403 13.9083L24.5181 15.9961L23.3172 15.5997L23.3133 15.6036ZM25.9662 12.0756L24.0589 11.4908L27.1279 1.47168L31.4565 2.79815L30.6049 4.18348L25.9662 12.0756Z" fill="#FF0033"/>
<path d="M34.4859 3.48096H45.8354C45.5921 7.00904 44.9288 9.06938 43.4729 10.9413C42.2641 12.6132 39.3404 14.0103 36.0831 14.5126L34.945 12.5111C37.2644 12.2364 39.2384 11.6164 40.5177 10.7687C42.2445 9.51677 43.1118 7.95876 43.4689 5.48243H34.4819V3.48096H34.4859Z" fill="#545454"/>
<path d="M49.1084 2.6492H51.2669V10.2548H49.1084V2.6492ZM58.0797 2.59033V8.35143C58.0208 11.6362 57.491 12.7311 55.3561 13.881C54.2337 14.4422 52.8641 14.7326 50.8195 14.8307L49.8972 12.7547C51.9419 12.6683 52.9661 12.5114 53.9316 12.1503C55.5877 11.4596 55.9173 10.7532 55.9487 7.91582V2.59033H58.0797Z" fill="#545454"/>
<path d="M61.0308 3.91699H73.1142C72.6982 5.80465 70.6496 8.86965 68.189 11.3185C68.8679 12.1387 69.0837 12.4134 69.8294 13.4927L67.9849 14.8466C66.8193 12.904 64.7315 10.5258 62.6869 8.82648L64.4019 7.54319C65.5243 8.46543 66.0148 8.91282 66.8507 9.81937C68.032 8.68128 69.4134 6.91135 69.9471 5.81643H61.0308V3.91699Z" fill="#545454"/>
</g>
<defs>
<clipPath id="clip0_19317_34180">
<rect width="72.2296" height="16" fill="white" transform="translate(0.884766)"/>
</clipPath>
</defs>
</svg>
